<?xml version="1.0" encoding="UTF-8"?>
<svg width="587px" height="475px" viewBox="0 0 587 475" version="1.1" xmlns="http://www.w3.org/2000/svg" xmlns:xlink="http://www.w3.org/1999/xlink">
    <title>Group Copy 2</title>
    <g id="Page-1" stroke="none" stroke-width="1" fill="none" fill-rule="evenodd" stroke-linecap="round">
        <g id="Artboard-Copy-4" transform="translate(-207.000000, -262.000000)" stroke="#000000" stroke-width="64">
            <g id="Group-Copy-2" transform="translate(239.000000, 294.000000)">
                <path d="M169.60428,0 C169.596309,193.377008 169.592323,290.065512 169.592323,290.065512 C169.592323,290.065512 169.5,292.696765 169.5,321.5 C169.5,334.239892 163.469738,350.623989 153.780735,365.25129 C137.524668,389.792757 109.175951,411 70.4051635,411 C-22.5311462,411 -22.2688402,290.065512 64.1452518,290.065512 C121.754646,290.065512 180.731984,290.065512 241.077265,290.065512 C323.383857,290.065512 394.795878,290.065512 455.313327,290.065512 C546.089502,290.065512 546.36436,411 451.267712,411 C416.231738,411 386.435321,391.840196 369.22066,365.025606 C360.2037,350.980249 354.5,332.578167 354.5,321.5 C354.5,302.297844 354.42472,291.880503 354.27416,290.247978" id="Path-17-Copy-7"></path>
            </g>
        </g>
    </g>
</svg>