<?xml version="1.0" encoding="UTF-8"?>
<svg width="515px" height="423px" viewBox="0 0 515 423" version="1.1" xmlns="http://www.w3.org/2000/svg" xmlns:xlink="http://www.w3.org/1999/xlink">
    <title>Group Copy</title>
    <g id="Page-1" stroke="none" stroke-width="1" fill="none" fill-rule="evenodd" stroke-linecap="round">
        <g id="Artboard-Copy-3" transform="translate(-242.000000, -288.000000)" stroke="#000000" stroke-width="52">
            <g id="Group-Copy" transform="translate(268.603192, 314.000000)">
                <path d="M153.190234,0 C153.183034,174.556861 153.179434,261.835291 153.179434,261.835291 C153.179434,261.835291 153.149384,262 153.149384,288 C153.149384,299.5 147.649384,316.5 138.898067,329.703719 C124.215239,351.856723 98.6100677,371 63.5914581,371 C-20.3506159,371 -20.1136955,261.835291 57.9373712,261.835291 C109.971416,261.835291 163.241016,261.835291 217.746172,261.835291 C284.861484,261.835291 345.749471,261.835291 400.410133,261.835291 C482.401127,261.835291 482.649384,371 396.756046,371 C365.110801,371 338.198037,353.704897 322.649384,329.5 C314.505072,316.821588 309.149384,298 309.149384,288 C309.149384,270.666667 309.149384,262 309.149384,262" id="Path-17-Copy-6"></path>
            </g>
        </g>
    </g>
</svg>